<mxfile host="65bd71144e">
    <diagram id="MBNzp0OTKmG_ipvjlSO1" name="PÃ¡gina-1">
        <mxGraphModel dx="664" dy="563" grid="1" gridSize="10" guides="1" tooltips="1" connect="1" arrows="1" fold="1" page="1" pageScale="1" pageWidth="827" pageHeight="1169" math="0" shadow="0">
            <root>
                <mxCell id="0"/>
                <mxCell id="1" parent="0"/>
                <mxCell id="2" value="Actor" style="shape=umlActor;verticalLabelPosition=bottom;verticalAlign=top;html=1;outlineConnect=0;" vertex="1" parent="1">
                    <mxGeometry x="120" y="650" width="110" height="220" as="geometry"/>
                </mxCell>
                <mxCell id="3" value="tipo de objeto:&amp;nbsp; persona" style="text;html=1;align=center;verticalAlign=middle;whiteSpace=wrap;rounded=0;" vertex="1" parent="1">
                    <mxGeometry x="300" y="650" width="140" height="20" as="geometry"/>
                </mxCell>
                <mxCell id="4" value="Atributo de objeto:&lt;div&gt;Nombre: string&lt;/div&gt;&lt;div&gt;edad: int&lt;/div&gt;&lt;div&gt;estatura: float&amp;nbsp;&lt;/div&gt;&lt;div&gt;peso: float&lt;/div&gt;" style="text;html=1;align=center;verticalAlign=middle;whiteSpace=wrap;rounded=0;" vertex="1" parent="1">
                    <mxGeometry x="274" y="690" width="170" height="70" as="geometry"/>
                </mxCell>
                <mxCell id="5" value="acciones del objeto:&lt;div&gt;imc()&lt;/div&gt;&lt;div&gt;semana de vida()&lt;/div&gt;&lt;div&gt;volumen()&lt;/div&gt;" style="text;html=1;align=center;verticalAlign=middle;whiteSpace=wrap;rounded=0;" vertex="1" parent="1">
                    <mxGeometry x="304" y="790" width="110" height="90" as="geometry"/>
                </mxCell>
            </root>
        </mxGraphModel>
    </diagram>
</mxfile>